M48
; DRILL file {KiCad (6.0.8)} date Tue Mar 14 15:32:03 2023
; FORMAT={-:-/ absolute / inch / decimal}
; #@! TF.CreationDate,2023-03-14T15:32:03-04:00
; #@! TF.GenerationSoftware,Kicad,Pcbnew,(6.0.8)
; #@! TF.FileFunction,Plated,1,2,PTH
FMAT,2
INCH
; #@! TA.AperFunction,Plated,PTH,ComponentDrill
T1C0.0315
; #@! TA.AperFunction,Plated,PTH,ComponentDrill
T2C0.0354
; #@! TA.AperFunction,Plated,PTH,ComponentDrill
T3C0.0394
; #@! TA.AperFunction,Plated,PTH,ComponentDrill
T4C0.0433
; #@! TA.AperFunction,Plated,PTH,ComponentDrill
T5C0.0472
; #@! TA.AperFunction,Plated,PTH,ComponentDrill
T6C0.0512
%
G90
G05
T1
X5.8661Y-2.874
X5.8661Y-3.0709
X5.9055Y-3.937
X5.9055Y-4.1339
X6.4173Y-2.874
X6.4173Y-3.274
X6.4173Y-3.937
X6.4173Y-4.337
X7.0226Y-3.0372
X7.0226Y-3.4372
T2
X7.3514Y-3.1815
X7.3514Y-3.2815
T3
X3.7205Y-5.8268
X3.8205Y-5.8268
X3.9205Y-5.8268
X4.0205Y-5.8268
X4.1205Y-5.8268
X4.2205Y-5.8268
X4.3205Y-5.8268
X4.4205Y-5.8268
X4.5205Y-5.8268
X4.6205Y-5.8268
X5.9055Y-4.9213
X5.9055Y-5.8071
X6.0055Y-4.9213
X6.0055Y-5.8071
X6.1055Y-4.9213
X6.1055Y-5.8071
X6.2055Y-4.9213
X6.2055Y-5.8071
X6.3055Y-4.9213
X6.3055Y-5.8071
X6.4055Y-4.9213
X6.4055Y-5.8071
X6.5055Y-4.9213
X6.5055Y-5.8071
X6.6055Y-4.9213
X6.6055Y-5.8071
X6.7055Y-4.9213
X6.7055Y-5.8071
X6.8055Y-4.9213
X6.8055Y-5.8071
X6.9055Y-4.9213
X6.9055Y-5.8071
X7.0055Y-4.9213
X7.0055Y-5.8071
X7.1055Y-4.9213
X7.1055Y-5.8071
X7.2055Y-4.9213
X7.2055Y-5.8071
X7.3055Y-4.9213
X7.3055Y-5.8071
X7.4055Y-4.9213
X7.4055Y-5.8071
X7.5055Y-4.9213
X7.5055Y-5.8071
X7.6055Y-4.9213
X7.6055Y-5.8071
X7.7055Y-4.9213
X7.7055Y-5.8071
T4
X3.537Y-3.0709
X3.537Y-3.4646
X3.537Y-4.0945
X3.537Y-4.5669
X3.937Y-3.0709
X3.937Y-3.4646
X3.937Y-4.0945
X3.937Y-4.5669
X4.1276Y-3.0709
X4.1276Y-3.4646
X4.1276Y-4.0945
X4.1276Y-4.5669
X4.5276Y-3.0709
X4.5276Y-3.4646
X4.5276Y-4.0945
X4.5276Y-4.5669
T5
X5.1181Y-2.874
X5.1181Y-3.937
X5.315Y-2.874
X5.315Y-3.937
T6
X2.6024Y-3.2835
X2.6024Y-4.3465
X2.7559Y-3.4646
X2.7559Y-4.5276
X2.8701Y-3.185
X2.8701Y-4.248
X2.9173Y-3.0787
X2.9173Y-4.1417
X3.0433Y-3.4449
X3.0433Y-4.5079
T1
G00X7.2835Y-4.3819
M15
G01X7.2835Y-4.2795
M16
G05
G00X7.4449Y-4.1417
M15
G01X7.3583Y-4.1417
M16
G05
G00X7.5118Y-4.374
M15
G01X7.5118Y-4.2874
M16
G05
T0
M30
