%TF.GenerationSoftware,KiCad,Pcbnew,(6.0.8)*%
%TF.CreationDate,2023-03-14T15:32:15-04:00*%
%TF.ProjectId,MainPCB,4d61696e-5043-4422-9e6b-696361645f70,rev?*%
%TF.SameCoordinates,Original*%
%TF.FileFunction,Legend,Top*%
%TF.FilePolarity,Positive*%
%FSLAX46Y46*%
G04 Gerber Fmt 4.6, Leading zero omitted, Abs format (unit mm)*
G04 Created by KiCad (PCBNEW (6.0.8)) date 2023-03-14 15:32:15*
%MOMM*%
%LPD*%
G01*
G04 APERTURE LIST*
%ADD10C,0.150000*%
%ADD11C,0.200000*%
%ADD12C,0.120000*%
G04 APERTURE END LIST*
D10*
X148858000Y-123400000D02*
X197358000Y-123400000D01*
X197358000Y-123400000D02*
X197358000Y-149400000D01*
X197358000Y-149400000D02*
X148858000Y-149400000D01*
X148858000Y-149400000D02*
X148858000Y-123400000D01*
X91888000Y-133350000D02*
X119888000Y-133350000D01*
X119888000Y-133350000D02*
X119888000Y-150550000D01*
X119888000Y-150550000D02*
X91888000Y-150550000D01*
X91888000Y-150550000D02*
X91888000Y-133350000D01*
D11*
X150000000Y-147500000D02*
X150000000Y-125000000D01*
D10*
X194500666Y-150328380D02*
X194834000Y-151328380D01*
X195167333Y-150328380D01*
X196072095Y-151233142D02*
X196024476Y-151280761D01*
X195881619Y-151328380D01*
X195786380Y-151328380D01*
X195643523Y-151280761D01*
X195548285Y-151185523D01*
X195500666Y-151090285D01*
X195453047Y-150899809D01*
X195453047Y-150756952D01*
X195500666Y-150566476D01*
X195548285Y-150471238D01*
X195643523Y-150376000D01*
X195786380Y-150328380D01*
X195881619Y-150328380D01*
X196024476Y-150376000D01*
X196072095Y-150423619D01*
X197072095Y-151233142D02*
X197024476Y-151280761D01*
X196881619Y-151328380D01*
X196786380Y-151328380D01*
X196643523Y-151280761D01*
X196548285Y-151185523D01*
X196500666Y-151090285D01*
X196453047Y-150899809D01*
X196453047Y-150756952D01*
X196500666Y-150566476D01*
X196548285Y-150471238D01*
X196643523Y-150376000D01*
X196786380Y-150328380D01*
X196881619Y-150328380D01*
X197024476Y-150376000D01*
X197072095Y-150423619D01*
X67670000Y-136786857D02*
X67670000Y-135586857D01*
X68127142Y-135586857D01*
X68241428Y-135644000D01*
X68298571Y-135701142D01*
X68355714Y-135815428D01*
X68355714Y-135986857D01*
X68298571Y-136101142D01*
X68241428Y-136158285D01*
X68127142Y-136215428D01*
X67670000Y-136215428D01*
X69041428Y-136786857D02*
X68927142Y-136729714D01*
X68870000Y-136672571D01*
X68812857Y-136558285D01*
X68812857Y-136215428D01*
X68870000Y-136101142D01*
X68927142Y-136044000D01*
X69041428Y-135986857D01*
X69212857Y-135986857D01*
X69327142Y-136044000D01*
X69384285Y-136101142D01*
X69441428Y-136215428D01*
X69441428Y-136558285D01*
X69384285Y-136672571D01*
X69327142Y-136729714D01*
X69212857Y-136786857D01*
X69041428Y-136786857D01*
X69841428Y-135986857D02*
X70070000Y-136786857D01*
X70298571Y-136215428D01*
X70527142Y-136786857D01*
X70755714Y-135986857D01*
X71670000Y-136729714D02*
X71555714Y-136786857D01*
X71327142Y-136786857D01*
X71212857Y-136729714D01*
X71155714Y-136615428D01*
X71155714Y-136158285D01*
X71212857Y-136044000D01*
X71327142Y-135986857D01*
X71555714Y-135986857D01*
X71670000Y-136044000D01*
X71727142Y-136158285D01*
X71727142Y-136272571D01*
X71155714Y-136386857D01*
X72241428Y-136786857D02*
X72241428Y-135986857D01*
X72241428Y-136215428D02*
X72298571Y-136101142D01*
X72355714Y-136044000D01*
X72470000Y-135986857D01*
X72584285Y-135986857D01*
X74527142Y-135644000D02*
X74412857Y-135586857D01*
X74241428Y-135586857D01*
X74070000Y-135644000D01*
X73955714Y-135758285D01*
X73898571Y-135872571D01*
X73841428Y-136101142D01*
X73841428Y-136272571D01*
X73898571Y-136501142D01*
X73955714Y-136615428D01*
X74070000Y-136729714D01*
X74241428Y-136786857D01*
X74355714Y-136786857D01*
X74527142Y-136729714D01*
X74584285Y-136672571D01*
X74584285Y-136272571D01*
X74355714Y-136272571D01*
X75555714Y-136729714D02*
X75441428Y-136786857D01*
X75212857Y-136786857D01*
X75098571Y-136729714D01*
X75041428Y-136615428D01*
X75041428Y-136158285D01*
X75098571Y-136044000D01*
X75212857Y-135986857D01*
X75441428Y-135986857D01*
X75555714Y-136044000D01*
X75612857Y-136158285D01*
X75612857Y-136272571D01*
X75041428Y-136386857D01*
X76127142Y-135986857D02*
X76127142Y-136786857D01*
X76127142Y-136101142D02*
X76184285Y-136044000D01*
X76298571Y-135986857D01*
X76470000Y-135986857D01*
X76584285Y-136044000D01*
X76641428Y-136158285D01*
X76641428Y-136786857D01*
X77670000Y-136729714D02*
X77555714Y-136786857D01*
X77327142Y-136786857D01*
X77212857Y-136729714D01*
X77155714Y-136615428D01*
X77155714Y-136158285D01*
X77212857Y-136044000D01*
X77327142Y-135986857D01*
X77555714Y-135986857D01*
X77670000Y-136044000D01*
X77727142Y-136158285D01*
X77727142Y-136272571D01*
X77155714Y-136386857D01*
X78241428Y-136786857D02*
X78241428Y-135986857D01*
X78241428Y-136215428D02*
X78298571Y-136101142D01*
X78355714Y-136044000D01*
X78470000Y-135986857D01*
X78584285Y-135986857D01*
X79498571Y-136786857D02*
X79498571Y-136158285D01*
X79441428Y-136044000D01*
X79327142Y-135986857D01*
X79098571Y-135986857D01*
X78984285Y-136044000D01*
X79498571Y-136729714D02*
X79384285Y-136786857D01*
X79098571Y-136786857D01*
X78984285Y-136729714D01*
X78927142Y-136615428D01*
X78927142Y-136501142D01*
X78984285Y-136386857D01*
X79098571Y-136329714D01*
X79384285Y-136329714D01*
X79498571Y-136272571D01*
X79898571Y-135986857D02*
X80355714Y-135986857D01*
X80070000Y-135586857D02*
X80070000Y-136615428D01*
X80127142Y-136729714D01*
X80241428Y-136786857D01*
X80355714Y-136786857D01*
X80755714Y-136786857D02*
X80755714Y-135986857D01*
X80755714Y-135586857D02*
X80698571Y-135644000D01*
X80755714Y-135701142D01*
X80812857Y-135644000D01*
X80755714Y-135586857D01*
X80755714Y-135701142D01*
X81498571Y-136786857D02*
X81384285Y-136729714D01*
X81327142Y-136672571D01*
X81270000Y-136558285D01*
X81270000Y-136215428D01*
X81327142Y-136101142D01*
X81384285Y-136044000D01*
X81498571Y-135986857D01*
X81670000Y-135986857D01*
X81784285Y-136044000D01*
X81841428Y-136101142D01*
X81898571Y-136215428D01*
X81898571Y-136558285D01*
X81841428Y-136672571D01*
X81784285Y-136729714D01*
X81670000Y-136786857D01*
X81498571Y-136786857D01*
X82412857Y-135986857D02*
X82412857Y-136786857D01*
X82412857Y-136101142D02*
X82470000Y-136044000D01*
X82584285Y-135986857D01*
X82755714Y-135986857D01*
X82870000Y-136044000D01*
X82927142Y-136158285D01*
X82927142Y-136786857D01*
X84241428Y-135986857D02*
X84698571Y-135986857D01*
X84412857Y-136786857D02*
X84412857Y-135758285D01*
X84470000Y-135644000D01*
X84584285Y-135586857D01*
X84698571Y-135586857D01*
X85270000Y-136786857D02*
X85155714Y-136729714D01*
X85098571Y-136672571D01*
X85041428Y-136558285D01*
X85041428Y-136215428D01*
X85098571Y-136101142D01*
X85155714Y-136044000D01*
X85270000Y-135986857D01*
X85441428Y-135986857D01*
X85555714Y-136044000D01*
X85612857Y-136101142D01*
X85670000Y-136215428D01*
X85670000Y-136558285D01*
X85612857Y-136672571D01*
X85555714Y-136729714D01*
X85441428Y-136786857D01*
X85270000Y-136786857D01*
X86184285Y-136786857D02*
X86184285Y-135986857D01*
X86184285Y-136215428D02*
X86241428Y-136101142D01*
X86298571Y-136044000D01*
X86412857Y-135986857D01*
X86527142Y-135986857D01*
X66384285Y-138604571D02*
X66327142Y-138661714D01*
X66155714Y-138718857D01*
X66041428Y-138718857D01*
X65870000Y-138661714D01*
X65755714Y-138547428D01*
X65698571Y-138433142D01*
X65641428Y-138204571D01*
X65641428Y-138033142D01*
X65698571Y-137804571D01*
X65755714Y-137690285D01*
X65870000Y-137576000D01*
X66041428Y-137518857D01*
X66155714Y-137518857D01*
X66327142Y-137576000D01*
X66384285Y-137633142D01*
X67070000Y-138718857D02*
X66955714Y-138661714D01*
X66898571Y-138604571D01*
X66841428Y-138490285D01*
X66841428Y-138147428D01*
X66898571Y-138033142D01*
X66955714Y-137976000D01*
X67070000Y-137918857D01*
X67241428Y-137918857D01*
X67355714Y-137976000D01*
X67412857Y-138033142D01*
X67470000Y-138147428D01*
X67470000Y-138490285D01*
X67412857Y-138604571D01*
X67355714Y-138661714D01*
X67241428Y-138718857D01*
X67070000Y-138718857D01*
X67984285Y-137918857D02*
X67984285Y-138718857D01*
X67984285Y-138033142D02*
X68041428Y-137976000D01*
X68155714Y-137918857D01*
X68327142Y-137918857D01*
X68441428Y-137976000D01*
X68498571Y-138090285D01*
X68498571Y-138718857D01*
X69012857Y-138661714D02*
X69127142Y-138718857D01*
X69355714Y-138718857D01*
X69470000Y-138661714D01*
X69527142Y-138547428D01*
X69527142Y-138490285D01*
X69470000Y-138376000D01*
X69355714Y-138318857D01*
X69184285Y-138318857D01*
X69070000Y-138261714D01*
X69012857Y-138147428D01*
X69012857Y-138090285D01*
X69070000Y-137976000D01*
X69184285Y-137918857D01*
X69355714Y-137918857D01*
X69470000Y-137976000D01*
X70555714Y-137918857D02*
X70555714Y-138718857D01*
X70041428Y-137918857D02*
X70041428Y-138547428D01*
X70098571Y-138661714D01*
X70212857Y-138718857D01*
X70384285Y-138718857D01*
X70498571Y-138661714D01*
X70555714Y-138604571D01*
X71127142Y-138718857D02*
X71127142Y-137918857D01*
X71127142Y-138033142D02*
X71184285Y-137976000D01*
X71298571Y-137918857D01*
X71470000Y-137918857D01*
X71584285Y-137976000D01*
X71641428Y-138090285D01*
X71641428Y-138718857D01*
X71641428Y-138090285D02*
X71698571Y-137976000D01*
X71812857Y-137918857D01*
X71984285Y-137918857D01*
X72098571Y-137976000D01*
X72155714Y-138090285D01*
X72155714Y-138718857D01*
X72727142Y-137918857D02*
X72727142Y-139118857D01*
X72727142Y-137976000D02*
X72841428Y-137918857D01*
X73070000Y-137918857D01*
X73184285Y-137976000D01*
X73241428Y-138033142D01*
X73298571Y-138147428D01*
X73298571Y-138490285D01*
X73241428Y-138604571D01*
X73184285Y-138661714D01*
X73070000Y-138718857D01*
X72841428Y-138718857D01*
X72727142Y-138661714D01*
X73641428Y-137918857D02*
X74098571Y-137918857D01*
X73812857Y-137518857D02*
X73812857Y-138547428D01*
X73870000Y-138661714D01*
X73984285Y-138718857D01*
X74098571Y-138718857D01*
X74498571Y-138718857D02*
X74498571Y-137918857D01*
X74498571Y-137518857D02*
X74441428Y-137576000D01*
X74498571Y-137633142D01*
X74555714Y-137576000D01*
X74498571Y-137518857D01*
X74498571Y-137633142D01*
X75241428Y-138718857D02*
X75127142Y-138661714D01*
X75070000Y-138604571D01*
X75012857Y-138490285D01*
X75012857Y-138147428D01*
X75070000Y-138033142D01*
X75127142Y-137976000D01*
X75241428Y-137918857D01*
X75412857Y-137918857D01*
X75527142Y-137976000D01*
X75584285Y-138033142D01*
X75641428Y-138147428D01*
X75641428Y-138490285D01*
X75584285Y-138604571D01*
X75527142Y-138661714D01*
X75412857Y-138718857D01*
X75241428Y-138718857D01*
X76155714Y-137918857D02*
X76155714Y-138718857D01*
X76155714Y-138033142D02*
X76212857Y-137976000D01*
X76327142Y-137918857D01*
X76498571Y-137918857D01*
X76612857Y-137976000D01*
X76670000Y-138090285D01*
X76670000Y-138718857D01*
X78670000Y-138718857D02*
X78670000Y-138090285D01*
X78612857Y-137976000D01*
X78498571Y-137918857D01*
X78270000Y-137918857D01*
X78155714Y-137976000D01*
X78670000Y-138661714D02*
X78555714Y-138718857D01*
X78270000Y-138718857D01*
X78155714Y-138661714D01*
X78098571Y-138547428D01*
X78098571Y-138433142D01*
X78155714Y-138318857D01*
X78270000Y-138261714D01*
X78555714Y-138261714D01*
X78670000Y-138204571D01*
X79241428Y-137918857D02*
X79241428Y-138718857D01*
X79241428Y-138033142D02*
X79298571Y-137976000D01*
X79412857Y-137918857D01*
X79584285Y-137918857D01*
X79698571Y-137976000D01*
X79755714Y-138090285D01*
X79755714Y-138718857D01*
X80841428Y-138718857D02*
X80841428Y-137518857D01*
X80841428Y-138661714D02*
X80727142Y-138718857D01*
X80498571Y-138718857D01*
X80384285Y-138661714D01*
X80327142Y-138604571D01*
X80270000Y-138490285D01*
X80270000Y-138147428D01*
X80327142Y-138033142D01*
X80384285Y-137976000D01*
X80498571Y-137918857D01*
X80727142Y-137918857D01*
X80841428Y-137976000D01*
X82155714Y-137518857D02*
X82841428Y-137518857D01*
X82498571Y-138718857D02*
X82498571Y-137518857D01*
X83241428Y-138718857D02*
X83241428Y-137918857D01*
X83241428Y-138147428D02*
X83298571Y-138033142D01*
X83355714Y-137976000D01*
X83470000Y-137918857D01*
X83584285Y-137918857D01*
X84498571Y-138718857D02*
X84498571Y-138090285D01*
X84441428Y-137976000D01*
X84327142Y-137918857D01*
X84098571Y-137918857D01*
X83984285Y-137976000D01*
X84498571Y-138661714D02*
X84384285Y-138718857D01*
X84098571Y-138718857D01*
X83984285Y-138661714D01*
X83927142Y-138547428D01*
X83927142Y-138433142D01*
X83984285Y-138318857D01*
X84098571Y-138261714D01*
X84384285Y-138261714D01*
X84498571Y-138204571D01*
X85584285Y-138661714D02*
X85470000Y-138718857D01*
X85241428Y-138718857D01*
X85127142Y-138661714D01*
X85070000Y-138604571D01*
X85012857Y-138490285D01*
X85012857Y-138147428D01*
X85070000Y-138033142D01*
X85127142Y-137976000D01*
X85241428Y-137918857D01*
X85470000Y-137918857D01*
X85584285Y-137976000D01*
X86098571Y-138718857D02*
X86098571Y-137518857D01*
X86212857Y-138261714D02*
X86555714Y-138718857D01*
X86555714Y-137918857D02*
X86098571Y-138376000D01*
X87070000Y-138718857D02*
X87070000Y-137918857D01*
X87070000Y-137518857D02*
X87012857Y-137576000D01*
X87070000Y-137633142D01*
X87127142Y-137576000D01*
X87070000Y-137518857D01*
X87070000Y-137633142D01*
X87641428Y-137918857D02*
X87641428Y-138718857D01*
X87641428Y-138033142D02*
X87698571Y-137976000D01*
X87812857Y-137918857D01*
X87984285Y-137918857D01*
X88098571Y-137976000D01*
X88155714Y-138090285D01*
X88155714Y-138718857D01*
X89241428Y-137918857D02*
X89241428Y-138890285D01*
X89184285Y-139004571D01*
X89127142Y-139061714D01*
X89012857Y-139118857D01*
X88841428Y-139118857D01*
X88727142Y-139061714D01*
X89241428Y-138661714D02*
X89127142Y-138718857D01*
X88898571Y-138718857D01*
X88784285Y-138661714D01*
X88727142Y-138604571D01*
X88670000Y-138490285D01*
X88670000Y-138147428D01*
X88727142Y-138033142D01*
X88784285Y-137976000D01*
X88898571Y-137918857D01*
X89127142Y-137918857D01*
X89241428Y-137976000D01*
X73841428Y-140593714D02*
X73955714Y-140650857D01*
X74184285Y-140650857D01*
X74298571Y-140593714D01*
X74355714Y-140479428D01*
X74355714Y-140422285D01*
X74298571Y-140308000D01*
X74184285Y-140250857D01*
X74012857Y-140250857D01*
X73898571Y-140193714D01*
X73841428Y-140079428D01*
X73841428Y-140022285D01*
X73898571Y-139908000D01*
X74012857Y-139850857D01*
X74184285Y-139850857D01*
X74298571Y-139908000D01*
X75384285Y-140650857D02*
X75384285Y-139450857D01*
X75384285Y-140593714D02*
X75270000Y-140650857D01*
X75041428Y-140650857D01*
X74927142Y-140593714D01*
X74870000Y-140536571D01*
X74812857Y-140422285D01*
X74812857Y-140079428D01*
X74870000Y-139965142D01*
X74927142Y-139908000D01*
X75041428Y-139850857D01*
X75270000Y-139850857D01*
X75384285Y-139908000D01*
X75898571Y-139565142D02*
X75955714Y-139508000D01*
X76070000Y-139450857D01*
X76355714Y-139450857D01*
X76470000Y-139508000D01*
X76527142Y-139565142D01*
X76584285Y-139679428D01*
X76584285Y-139793714D01*
X76527142Y-139965142D01*
X75841428Y-140650857D01*
X76584285Y-140650857D01*
X76984285Y-139450857D02*
X77727142Y-139450857D01*
X77327142Y-139908000D01*
X77498571Y-139908000D01*
X77612857Y-139965142D01*
X77670000Y-140022285D01*
X77727142Y-140136571D01*
X77727142Y-140422285D01*
X77670000Y-140536571D01*
X77612857Y-140593714D01*
X77498571Y-140650857D01*
X77155714Y-140650857D01*
X77041428Y-140593714D01*
X76984285Y-140536571D01*
X78241428Y-139850857D02*
X78241428Y-141050857D01*
X78241428Y-139908000D02*
X78355714Y-139850857D01*
X78584285Y-139850857D01*
X78698571Y-139908000D01*
X78755714Y-139965142D01*
X78812857Y-140079428D01*
X78812857Y-140422285D01*
X78755714Y-140536571D01*
X78698571Y-140593714D01*
X78584285Y-140650857D01*
X78355714Y-140650857D01*
X78241428Y-140593714D01*
X79555714Y-139450857D02*
X79670000Y-139450857D01*
X79784285Y-139508000D01*
X79841428Y-139565142D01*
X79898571Y-139679428D01*
X79955714Y-139908000D01*
X79955714Y-140193714D01*
X79898571Y-140422285D01*
X79841428Y-140536571D01*
X79784285Y-140593714D01*
X79670000Y-140650857D01*
X79555714Y-140650857D01*
X79441428Y-140593714D01*
X79384285Y-140536571D01*
X79327142Y-140422285D01*
X79270000Y-140193714D01*
X79270000Y-139908000D01*
X79327142Y-139679428D01*
X79384285Y-139565142D01*
X79441428Y-139508000D01*
X79555714Y-139450857D01*
X80355714Y-139450857D02*
X81155714Y-139450857D01*
X80641428Y-140650857D01*
X189643142Y-134537380D02*
X189643142Y-135346904D01*
X189690761Y-135442142D01*
X189738380Y-135489761D01*
X189833619Y-135537380D01*
X190024095Y-135537380D01*
X190119333Y-135489761D01*
X190166952Y-135442142D01*
X190214571Y-135346904D01*
X190214571Y-134537380D01*
X190643142Y-135489761D02*
X190786000Y-135537380D01*
X191024095Y-135537380D01*
X191119333Y-135489761D01*
X191166952Y-135442142D01*
X191214571Y-135346904D01*
X191214571Y-135251666D01*
X191166952Y-135156428D01*
X191119333Y-135108809D01*
X191024095Y-135061190D01*
X190833619Y-135013571D01*
X190738380Y-134965952D01*
X190690761Y-134918333D01*
X190643142Y-134823095D01*
X190643142Y-134727857D01*
X190690761Y-134632619D01*
X190738380Y-134585000D01*
X190833619Y-134537380D01*
X191071714Y-134537380D01*
X191214571Y-134585000D01*
X191976476Y-135013571D02*
X192119333Y-135061190D01*
X192166952Y-135108809D01*
X192214571Y-135204047D01*
X192214571Y-135346904D01*
X192166952Y-135442142D01*
X192119333Y-135489761D01*
X192024095Y-135537380D01*
X191643142Y-135537380D01*
X191643142Y-134537380D01*
X191976476Y-134537380D01*
X192071714Y-134585000D01*
X192119333Y-134632619D01*
X192166952Y-134727857D01*
X192166952Y-134823095D01*
X192119333Y-134918333D01*
X192071714Y-134965952D01*
X191976476Y-135013571D01*
X191643142Y-135013571D01*
X193405047Y-134870714D02*
X193405047Y-135870714D01*
X193405047Y-134918333D02*
X193500285Y-134870714D01*
X193690761Y-134870714D01*
X193786000Y-134918333D01*
X193833619Y-134965952D01*
X193881238Y-135061190D01*
X193881238Y-135346904D01*
X193833619Y-135442142D01*
X193786000Y-135489761D01*
X193690761Y-135537380D01*
X193500285Y-135537380D01*
X193405047Y-135489761D01*
X194452666Y-135537380D02*
X194357428Y-135489761D01*
X194309809Y-135442142D01*
X194262190Y-135346904D01*
X194262190Y-135061190D01*
X194309809Y-134965952D01*
X194357428Y-134918333D01*
X194452666Y-134870714D01*
X194595523Y-134870714D01*
X194690761Y-134918333D01*
X194738380Y-134965952D01*
X194786000Y-135061190D01*
X194786000Y-135346904D01*
X194738380Y-135442142D01*
X194690761Y-135489761D01*
X194595523Y-135537380D01*
X194452666Y-135537380D01*
X195214571Y-135537380D02*
X195214571Y-134870714D01*
X195214571Y-135061190D02*
X195262190Y-134965952D01*
X195309809Y-134918333D01*
X195405047Y-134870714D01*
X195500285Y-134870714D01*
X195690761Y-134870714D02*
X196071714Y-134870714D01*
X195833619Y-134537380D02*
X195833619Y-135394523D01*
X195881238Y-135489761D01*
X195976476Y-135537380D01*
X196071714Y-135537380D01*
X191405047Y-137147380D02*
X191405047Y-136147380D01*
X191833619Y-137147380D02*
X191833619Y-136623571D01*
X191786000Y-136528333D01*
X191690761Y-136480714D01*
X191547904Y-136480714D01*
X191452666Y-136528333D01*
X191405047Y-136575952D01*
X192690761Y-137099761D02*
X192595523Y-137147380D01*
X192405047Y-137147380D01*
X192309809Y-137099761D01*
X192262190Y-137004523D01*
X192262190Y-136623571D01*
X192309809Y-136528333D01*
X192405047Y-136480714D01*
X192595523Y-136480714D01*
X192690761Y-136528333D01*
X192738380Y-136623571D01*
X192738380Y-136718809D01*
X192262190Y-136814047D01*
X193166952Y-137147380D02*
X193166952Y-136480714D01*
X193166952Y-136671190D02*
X193214571Y-136575952D01*
X193262190Y-136528333D01*
X193357428Y-136480714D01*
X193452666Y-136480714D01*
X194166952Y-137099761D02*
X194071714Y-137147380D01*
X193881238Y-137147380D01*
X193786000Y-137099761D01*
X193738380Y-137004523D01*
X193738380Y-136623571D01*
X193786000Y-136528333D01*
X193881238Y-136480714D01*
X194071714Y-136480714D01*
X194166952Y-136528333D01*
X194214571Y-136623571D01*
X194214571Y-136718809D01*
X193738380Y-136814047D01*
%TO.C,D7*%
X94003904Y-119324380D02*
X94003904Y-118324380D01*
X94242000Y-118324380D01*
X94384857Y-118372000D01*
X94480095Y-118467238D01*
X94527714Y-118562476D01*
X94575333Y-118752952D01*
X94575333Y-118895809D01*
X94527714Y-119086285D01*
X94480095Y-119181523D01*
X94384857Y-119276761D01*
X94242000Y-119324380D01*
X94003904Y-119324380D01*
X94908666Y-118324380D02*
X95575333Y-118324380D01*
X95146761Y-119324380D01*
X99738095Y-118552380D02*
X99738095Y-117552380D01*
X100309523Y-118552380D02*
X99880952Y-117980952D01*
X100309523Y-117552380D02*
X99738095Y-118123809D01*
%TO.C,J8*%
X91622380Y-148333333D02*
X92336666Y-148333333D01*
X92479523Y-148380952D01*
X92574761Y-148476190D01*
X92622380Y-148619047D01*
X92622380Y-148714285D01*
X92050952Y-147714285D02*
X92003333Y-147809523D01*
X91955714Y-147857142D01*
X91860476Y-147904761D01*
X91812857Y-147904761D01*
X91717619Y-147857142D01*
X91670000Y-147809523D01*
X91622380Y-147714285D01*
X91622380Y-147523809D01*
X91670000Y-147428571D01*
X91717619Y-147380952D01*
X91812857Y-147333333D01*
X91860476Y-147333333D01*
X91955714Y-147380952D01*
X92003333Y-147428571D01*
X92050952Y-147523809D01*
X92050952Y-147714285D01*
X92098571Y-147809523D01*
X92146190Y-147857142D01*
X92241428Y-147904761D01*
X92431904Y-147904761D01*
X92527142Y-147857142D01*
X92574761Y-147809523D01*
X92622380Y-147714285D01*
X92622380Y-147523809D01*
X92574761Y-147428571D01*
X92527142Y-147380952D01*
X92431904Y-147333333D01*
X92241428Y-147333333D01*
X92146190Y-147380952D01*
X92098571Y-147428571D01*
X92050952Y-147523809D01*
%TO.C,L2*%
X132333333Y-93202380D02*
X131857142Y-93202380D01*
X131857142Y-92202380D01*
X132619047Y-92297619D02*
X132666666Y-92250000D01*
X132761904Y-92202380D01*
X133000000Y-92202380D01*
X133095238Y-92250000D01*
X133142857Y-92297619D01*
X133190476Y-92392857D01*
X133190476Y-92488095D01*
X133142857Y-92630952D01*
X132571428Y-93202380D01*
X133190476Y-93202380D01*
%TO.C,D8*%
X108735904Y-119070380D02*
X108735904Y-118070380D01*
X108974000Y-118070380D01*
X109116857Y-118118000D01*
X109212095Y-118213238D01*
X109259714Y-118308476D01*
X109307333Y-118498952D01*
X109307333Y-118641809D01*
X109259714Y-118832285D01*
X109212095Y-118927523D01*
X109116857Y-119022761D01*
X108974000Y-119070380D01*
X108735904Y-119070380D01*
X109878761Y-118498952D02*
X109783523Y-118451333D01*
X109735904Y-118403714D01*
X109688285Y-118308476D01*
X109688285Y-118260857D01*
X109735904Y-118165619D01*
X109783523Y-118118000D01*
X109878761Y-118070380D01*
X110069238Y-118070380D01*
X110164476Y-118118000D01*
X110212095Y-118165619D01*
X110259714Y-118260857D01*
X110259714Y-118308476D01*
X110212095Y-118403714D01*
X110164476Y-118451333D01*
X110069238Y-118498952D01*
X109878761Y-118498952D01*
X109783523Y-118546571D01*
X109735904Y-118594190D01*
X109688285Y-118689428D01*
X109688285Y-118879904D01*
X109735904Y-118975142D01*
X109783523Y-119022761D01*
X109878761Y-119070380D01*
X110069238Y-119070380D01*
X110164476Y-119022761D01*
X110212095Y-118975142D01*
X110259714Y-118879904D01*
X110259714Y-118689428D01*
X110212095Y-118594190D01*
X110164476Y-118546571D01*
X110069238Y-118498952D01*
X114738095Y-118552380D02*
X114738095Y-117552380D01*
X115309523Y-118552380D02*
X114880952Y-117980952D01*
X115309523Y-117552380D02*
X114738095Y-118123809D01*
%TO.C,J5*%
X147122380Y-125333333D02*
X147836666Y-125333333D01*
X147979523Y-125380952D01*
X148074761Y-125476190D01*
X148122380Y-125619047D01*
X148122380Y-125714285D01*
X147122380Y-124380952D02*
X147122380Y-124857142D01*
X147598571Y-124904761D01*
X147550952Y-124857142D01*
X147503333Y-124761904D01*
X147503333Y-124523809D01*
X147550952Y-124428571D01*
X147598571Y-124380952D01*
X147693809Y-124333333D01*
X147931904Y-124333333D01*
X148027142Y-124380952D01*
X148074761Y-124428571D01*
X148122380Y-124523809D01*
X148122380Y-124761904D01*
X148074761Y-124857142D01*
X148027142Y-124904761D01*
%TO.C,J1*%
X66166666Y-89752380D02*
X66166666Y-90466666D01*
X66119047Y-90609523D01*
X66023809Y-90704761D01*
X65880952Y-90752380D01*
X65785714Y-90752380D01*
X67166666Y-90752380D02*
X66595238Y-90752380D01*
X66880952Y-90752380D02*
X66880952Y-89752380D01*
X66785714Y-89895238D01*
X66690476Y-89990476D01*
X66595238Y-90038095D01*
%TO.C,LED1*%
X185824952Y-77668380D02*
X185348761Y-77668380D01*
X185348761Y-76668380D01*
X186158285Y-77144571D02*
X186491619Y-77144571D01*
X186634476Y-77668380D02*
X186158285Y-77668380D01*
X186158285Y-76668380D01*
X186634476Y-76668380D01*
X187063047Y-77668380D02*
X187063047Y-76668380D01*
X187301142Y-76668380D01*
X187444000Y-76716000D01*
X187539238Y-76811238D01*
X187586857Y-76906476D01*
X187634476Y-77096952D01*
X187634476Y-77239809D01*
X187586857Y-77430285D01*
X187539238Y-77525523D01*
X187444000Y-77620761D01*
X187301142Y-77668380D01*
X187063047Y-77668380D01*
X188586857Y-77668380D02*
X188015428Y-77668380D01*
X188301142Y-77668380D02*
X188301142Y-76668380D01*
X188205904Y-76811238D01*
X188110666Y-76906476D01*
X188015428Y-76954095D01*
%TO.C,C1*%
X148931333Y-69699142D02*
X148883714Y-69746761D01*
X148740857Y-69794380D01*
X148645619Y-69794380D01*
X148502761Y-69746761D01*
X148407523Y-69651523D01*
X148359904Y-69556285D01*
X148312285Y-69365809D01*
X148312285Y-69222952D01*
X148359904Y-69032476D01*
X148407523Y-68937238D01*
X148502761Y-68842000D01*
X148645619Y-68794380D01*
X148740857Y-68794380D01*
X148883714Y-68842000D01*
X148931333Y-68889619D01*
X149883714Y-69794380D02*
X149312285Y-69794380D01*
X149598000Y-69794380D02*
X149598000Y-68794380D01*
X149502761Y-68937238D01*
X149407523Y-69032476D01*
X149312285Y-69080095D01*
%TO.C,J2*%
X66166666Y-116752380D02*
X66166666Y-117466666D01*
X66119047Y-117609523D01*
X66023809Y-117704761D01*
X65880952Y-117752380D01*
X65785714Y-117752380D01*
X66595238Y-116847619D02*
X66642857Y-116800000D01*
X66738095Y-116752380D01*
X66976190Y-116752380D01*
X67071428Y-116800000D01*
X67119047Y-116847619D01*
X67166666Y-116942857D01*
X67166666Y-117038095D01*
X67119047Y-117180952D01*
X66547619Y-117752380D01*
X67166666Y-117752380D01*
%TO.C,C2*%
X149947333Y-96115142D02*
X149899714Y-96162761D01*
X149756857Y-96210380D01*
X149661619Y-96210380D01*
X149518761Y-96162761D01*
X149423523Y-96067523D01*
X149375904Y-95972285D01*
X149328285Y-95781809D01*
X149328285Y-95638952D01*
X149375904Y-95448476D01*
X149423523Y-95353238D01*
X149518761Y-95258000D01*
X149661619Y-95210380D01*
X149756857Y-95210380D01*
X149899714Y-95258000D01*
X149947333Y-95305619D01*
X150328285Y-95305619D02*
X150375904Y-95258000D01*
X150471142Y-95210380D01*
X150709238Y-95210380D01*
X150804476Y-95258000D01*
X150852095Y-95305619D01*
X150899714Y-95400857D01*
X150899714Y-95496095D01*
X150852095Y-95638952D01*
X150280666Y-96210380D01*
X150899714Y-96210380D01*
%TO.C,J3*%
X184832666Y-101560380D02*
X184832666Y-102274666D01*
X184785047Y-102417523D01*
X184689809Y-102512761D01*
X184546952Y-102560380D01*
X184451714Y-102560380D01*
X185213619Y-101560380D02*
X185832666Y-101560380D01*
X185499333Y-101941333D01*
X185642190Y-101941333D01*
X185737428Y-101988952D01*
X185785047Y-102036571D01*
X185832666Y-102131809D01*
X185832666Y-102369904D01*
X185785047Y-102465142D01*
X185737428Y-102512761D01*
X185642190Y-102560380D01*
X185356476Y-102560380D01*
X185261238Y-102512761D01*
X185213619Y-102465142D01*
%TO.C,D5*%
X94003904Y-107132380D02*
X94003904Y-106132380D01*
X94242000Y-106132380D01*
X94384857Y-106180000D01*
X94480095Y-106275238D01*
X94527714Y-106370476D01*
X94575333Y-106560952D01*
X94575333Y-106703809D01*
X94527714Y-106894285D01*
X94480095Y-106989523D01*
X94384857Y-107084761D01*
X94242000Y-107132380D01*
X94003904Y-107132380D01*
X95480095Y-106132380D02*
X95003904Y-106132380D01*
X94956285Y-106608571D01*
X95003904Y-106560952D01*
X95099142Y-106513333D01*
X95337238Y-106513333D01*
X95432476Y-106560952D01*
X95480095Y-106608571D01*
X95527714Y-106703809D01*
X95527714Y-106941904D01*
X95480095Y-107037142D01*
X95432476Y-107084761D01*
X95337238Y-107132380D01*
X95099142Y-107132380D01*
X95003904Y-107084761D01*
X94956285Y-107037142D01*
X98668095Y-117827380D02*
X98668095Y-116827380D01*
X99239523Y-117827380D02*
X98810952Y-117255952D01*
X99239523Y-116827380D02*
X98668095Y-117398809D01*
%TO.C,J4*%
X147122380Y-147833333D02*
X147836666Y-147833333D01*
X147979523Y-147880952D01*
X148074761Y-147976190D01*
X148122380Y-148119047D01*
X148122380Y-148214285D01*
X147455714Y-146928571D02*
X148122380Y-146928571D01*
X147074761Y-147166666D02*
X147789047Y-147404761D01*
X147789047Y-146785714D01*
%TO.C,R1*%
X162901333Y-70810380D02*
X162568000Y-70334190D01*
X162329904Y-70810380D02*
X162329904Y-69810380D01*
X162710857Y-69810380D01*
X162806095Y-69858000D01*
X162853714Y-69905619D01*
X162901333Y-70000857D01*
X162901333Y-70143714D01*
X162853714Y-70238952D01*
X162806095Y-70286571D01*
X162710857Y-70334190D01*
X162329904Y-70334190D01*
X163853714Y-70810380D02*
X163282285Y-70810380D01*
X163568000Y-70810380D02*
X163568000Y-69810380D01*
X163472761Y-69953238D01*
X163377523Y-70048476D01*
X163282285Y-70096095D01*
%TO.C,R3*%
X177887333Y-74874380D02*
X177554000Y-74398190D01*
X177315904Y-74874380D02*
X177315904Y-73874380D01*
X177696857Y-73874380D01*
X177792095Y-73922000D01*
X177839714Y-73969619D01*
X177887333Y-74064857D01*
X177887333Y-74207714D01*
X177839714Y-74302952D01*
X177792095Y-74350571D01*
X177696857Y-74398190D01*
X177315904Y-74398190D01*
X178220666Y-73874380D02*
X178839714Y-73874380D01*
X178506380Y-74255333D01*
X178649238Y-74255333D01*
X178744476Y-74302952D01*
X178792095Y-74350571D01*
X178839714Y-74445809D01*
X178839714Y-74683904D01*
X178792095Y-74779142D01*
X178744476Y-74826761D01*
X178649238Y-74874380D01*
X178363523Y-74874380D01*
X178268285Y-74826761D01*
X178220666Y-74779142D01*
%TO.C,REF\u002A\u002A*%
X188666666Y-153252380D02*
X188333333Y-152776190D01*
X188095238Y-153252380D02*
X188095238Y-152252380D01*
X188476190Y-152252380D01*
X188571428Y-152300000D01*
X188619047Y-152347619D01*
X188666666Y-152442857D01*
X188666666Y-152585714D01*
X188619047Y-152680952D01*
X188571428Y-152728571D01*
X188476190Y-152776190D01*
X188095238Y-152776190D01*
X189095238Y-152728571D02*
X189428571Y-152728571D01*
X189571428Y-153252380D02*
X189095238Y-153252380D01*
X189095238Y-152252380D01*
X189571428Y-152252380D01*
X190333333Y-152728571D02*
X190000000Y-152728571D01*
X190000000Y-153252380D02*
X190000000Y-152252380D01*
X190476190Y-152252380D01*
X191000000Y-152252380D02*
X191000000Y-152490476D01*
X190761904Y-152395238D02*
X191000000Y-152490476D01*
X191238095Y-152395238D01*
X190857142Y-152680952D02*
X191000000Y-152490476D01*
X191142857Y-152680952D01*
X191761904Y-152252380D02*
X191761904Y-152490476D01*
X191523809Y-152395238D02*
X191761904Y-152490476D01*
X192000000Y-152395238D01*
X191619047Y-152680952D02*
X191761904Y-152490476D01*
X191904761Y-152680952D01*
%TO.C,D1*%
X94181904Y-80922380D02*
X94181904Y-79922380D01*
X94420000Y-79922380D01*
X94562857Y-79970000D01*
X94658095Y-80065238D01*
X94705714Y-80160476D01*
X94753333Y-80350952D01*
X94753333Y-80493809D01*
X94705714Y-80684285D01*
X94658095Y-80779523D01*
X94562857Y-80874761D01*
X94420000Y-80922380D01*
X94181904Y-80922380D01*
X95705714Y-80922380D02*
X95134285Y-80922380D01*
X95420000Y-80922380D02*
X95420000Y-79922380D01*
X95324761Y-80065238D01*
X95229523Y-80160476D01*
X95134285Y-80208095D01*
X99738095Y-80552380D02*
X99738095Y-79552380D01*
X100309523Y-80552380D02*
X99880952Y-79980952D01*
X100309523Y-79552380D02*
X99738095Y-80123809D01*
%TO.C,R2*%
X162647333Y-97226380D02*
X162314000Y-96750190D01*
X162075904Y-97226380D02*
X162075904Y-96226380D01*
X162456857Y-96226380D01*
X162552095Y-96274000D01*
X162599714Y-96321619D01*
X162647333Y-96416857D01*
X162647333Y-96559714D01*
X162599714Y-96654952D01*
X162552095Y-96702571D01*
X162456857Y-96750190D01*
X162075904Y-96750190D01*
X163028285Y-96321619D02*
X163075904Y-96274000D01*
X163171142Y-96226380D01*
X163409238Y-96226380D01*
X163504476Y-96274000D01*
X163552095Y-96321619D01*
X163599714Y-96416857D01*
X163599714Y-96512095D01*
X163552095Y-96654952D01*
X162980666Y-97226380D01*
X163599714Y-97226380D01*
%TO.C,REF\u002A\u002A*%
X83666666Y-65252380D02*
X83333333Y-64776190D01*
X83095238Y-65252380D02*
X83095238Y-64252380D01*
X83476190Y-64252380D01*
X83571428Y-64300000D01*
X83619047Y-64347619D01*
X83666666Y-64442857D01*
X83666666Y-64585714D01*
X83619047Y-64680952D01*
X83571428Y-64728571D01*
X83476190Y-64776190D01*
X83095238Y-64776190D01*
X84095238Y-64728571D02*
X84428571Y-64728571D01*
X84571428Y-65252380D02*
X84095238Y-65252380D01*
X84095238Y-64252380D01*
X84571428Y-64252380D01*
X85333333Y-64728571D02*
X85000000Y-64728571D01*
X85000000Y-65252380D02*
X85000000Y-64252380D01*
X85476190Y-64252380D01*
X86000000Y-64252380D02*
X86000000Y-64490476D01*
X85761904Y-64395238D02*
X86000000Y-64490476D01*
X86238095Y-64395238D01*
X85857142Y-64680952D02*
X86000000Y-64490476D01*
X86142857Y-64680952D01*
X86761904Y-64252380D02*
X86761904Y-64490476D01*
X86523809Y-64395238D02*
X86761904Y-64490476D01*
X87000000Y-64395238D01*
X86619047Y-64680952D02*
X86761904Y-64490476D01*
X86904761Y-64680952D01*
%TO.C,D4*%
X109181904Y-90922380D02*
X109181904Y-89922380D01*
X109420000Y-89922380D01*
X109562857Y-89970000D01*
X109658095Y-90065238D01*
X109705714Y-90160476D01*
X109753333Y-90350952D01*
X109753333Y-90493809D01*
X109705714Y-90684285D01*
X109658095Y-90779523D01*
X109562857Y-90874761D01*
X109420000Y-90922380D01*
X109181904Y-90922380D01*
X110610476Y-90255714D02*
X110610476Y-90922380D01*
X110372380Y-89874761D02*
X110134285Y-90589047D01*
X110753333Y-90589047D01*
X114738095Y-90552380D02*
X114738095Y-89552380D01*
X115309523Y-90552380D02*
X114880952Y-89980952D01*
X115309523Y-89552380D02*
X114738095Y-90123809D01*
%TO.C,REF\u002A\u002A*%
X188666666Y-65252380D02*
X188333333Y-64776190D01*
X188095238Y-65252380D02*
X188095238Y-64252380D01*
X188476190Y-64252380D01*
X188571428Y-64300000D01*
X188619047Y-64347619D01*
X188666666Y-64442857D01*
X188666666Y-64585714D01*
X188619047Y-64680952D01*
X188571428Y-64728571D01*
X188476190Y-64776190D01*
X188095238Y-64776190D01*
X189095238Y-64728571D02*
X189428571Y-64728571D01*
X189571428Y-65252380D02*
X189095238Y-65252380D01*
X189095238Y-64252380D01*
X189571428Y-64252380D01*
X190333333Y-64728571D02*
X190000000Y-64728571D01*
X190000000Y-65252380D02*
X190000000Y-64252380D01*
X190476190Y-64252380D01*
X191000000Y-64252380D02*
X191000000Y-64490476D01*
X190761904Y-64395238D02*
X191000000Y-64490476D01*
X191238095Y-64395238D01*
X190857142Y-64680952D02*
X191000000Y-64490476D01*
X191142857Y-64680952D01*
X191761904Y-64252380D02*
X191761904Y-64490476D01*
X191523809Y-64395238D02*
X191761904Y-64490476D01*
X192000000Y-64395238D01*
X191619047Y-64680952D02*
X191761904Y-64490476D01*
X191904761Y-64680952D01*
X83666666Y-153252380D02*
X83333333Y-152776190D01*
X83095238Y-153252380D02*
X83095238Y-152252380D01*
X83476190Y-152252380D01*
X83571428Y-152300000D01*
X83619047Y-152347619D01*
X83666666Y-152442857D01*
X83666666Y-152585714D01*
X83619047Y-152680952D01*
X83571428Y-152728571D01*
X83476190Y-152776190D01*
X83095238Y-152776190D01*
X84095238Y-152728571D02*
X84428571Y-152728571D01*
X84571428Y-153252380D02*
X84095238Y-153252380D01*
X84095238Y-152252380D01*
X84571428Y-152252380D01*
X85333333Y-152728571D02*
X85000000Y-152728571D01*
X85000000Y-153252380D02*
X85000000Y-152252380D01*
X85476190Y-152252380D01*
X86000000Y-152252380D02*
X86000000Y-152490476D01*
X85761904Y-152395238D02*
X86000000Y-152490476D01*
X86238095Y-152395238D01*
X85857142Y-152680952D02*
X86000000Y-152490476D01*
X86142857Y-152680952D01*
X86761904Y-152252380D02*
X86761904Y-152490476D01*
X86523809Y-152395238D02*
X86761904Y-152490476D01*
X87000000Y-152395238D01*
X86619047Y-152680952D02*
X86761904Y-152490476D01*
X86904761Y-152680952D01*
%TO.C,D2*%
X109181904Y-80922380D02*
X109181904Y-79922380D01*
X109420000Y-79922380D01*
X109562857Y-79970000D01*
X109658095Y-80065238D01*
X109705714Y-80160476D01*
X109753333Y-80350952D01*
X109753333Y-80493809D01*
X109705714Y-80684285D01*
X109658095Y-80779523D01*
X109562857Y-80874761D01*
X109420000Y-80922380D01*
X109181904Y-80922380D01*
X110134285Y-80017619D02*
X110181904Y-79970000D01*
X110277142Y-79922380D01*
X110515238Y-79922380D01*
X110610476Y-79970000D01*
X110658095Y-80017619D01*
X110705714Y-80112857D01*
X110705714Y-80208095D01*
X110658095Y-80350952D01*
X110086666Y-80922380D01*
X110705714Y-80922380D01*
X114738095Y-80552380D02*
X114738095Y-79552380D01*
X115309523Y-80552380D02*
X114880952Y-79980952D01*
X115309523Y-79552380D02*
X114738095Y-80123809D01*
%TO.C,D3*%
X94181904Y-90922380D02*
X94181904Y-89922380D01*
X94420000Y-89922380D01*
X94562857Y-89970000D01*
X94658095Y-90065238D01*
X94705714Y-90160476D01*
X94753333Y-90350952D01*
X94753333Y-90493809D01*
X94705714Y-90684285D01*
X94658095Y-90779523D01*
X94562857Y-90874761D01*
X94420000Y-90922380D01*
X94181904Y-90922380D01*
X95086666Y-89922380D02*
X95705714Y-89922380D01*
X95372380Y-90303333D01*
X95515238Y-90303333D01*
X95610476Y-90350952D01*
X95658095Y-90398571D01*
X95705714Y-90493809D01*
X95705714Y-90731904D01*
X95658095Y-90827142D01*
X95610476Y-90874761D01*
X95515238Y-90922380D01*
X95229523Y-90922380D01*
X95134285Y-90874761D01*
X95086666Y-90827142D01*
X99738095Y-90552380D02*
X99738095Y-89552380D01*
X100309523Y-90552380D02*
X99880952Y-89980952D01*
X100309523Y-89552380D02*
X99738095Y-90123809D01*
%TO.C,L1*%
X132333333Y-66202380D02*
X131857142Y-66202380D01*
X131857142Y-65202380D01*
X133190476Y-66202380D02*
X132619047Y-66202380D01*
X132904761Y-66202380D02*
X132904761Y-65202380D01*
X132809523Y-65345238D01*
X132714285Y-65440476D01*
X132619047Y-65488095D01*
%TO.C,D6*%
X108989904Y-107132380D02*
X108989904Y-106132380D01*
X109228000Y-106132380D01*
X109370857Y-106180000D01*
X109466095Y-106275238D01*
X109513714Y-106370476D01*
X109561333Y-106560952D01*
X109561333Y-106703809D01*
X109513714Y-106894285D01*
X109466095Y-106989523D01*
X109370857Y-107084761D01*
X109228000Y-107132380D01*
X108989904Y-107132380D01*
X110418476Y-106132380D02*
X110228000Y-106132380D01*
X110132761Y-106180000D01*
X110085142Y-106227619D01*
X109989904Y-106370476D01*
X109942285Y-106560952D01*
X109942285Y-106941904D01*
X109989904Y-107037142D01*
X110037523Y-107084761D01*
X110132761Y-107132380D01*
X110323238Y-107132380D01*
X110418476Y-107084761D01*
X110466095Y-107037142D01*
X110513714Y-106941904D01*
X110513714Y-106703809D01*
X110466095Y-106608571D01*
X110418476Y-106560952D01*
X110323238Y-106513333D01*
X110132761Y-106513333D01*
X110037523Y-106560952D01*
X109989904Y-106608571D01*
X109942285Y-106703809D01*
X113668095Y-117827380D02*
X113668095Y-116827380D01*
X114239523Y-117827380D02*
X113810952Y-117255952D01*
X114239523Y-116827380D02*
X113668095Y-117398809D01*
D12*
%TO.C,D7*%
X92200000Y-114530000D02*
X92200000Y-117470000D01*
X91180000Y-116000000D02*
X92200000Y-116000000D01*
X96620000Y-117470000D02*
X96620000Y-114530000D01*
X98660000Y-116000000D02*
X97640000Y-116000000D01*
X96860000Y-117470000D02*
X96860000Y-114530000D01*
X97640000Y-117470000D02*
X97640000Y-114530000D01*
X92200000Y-117470000D02*
X97640000Y-117470000D01*
X96740000Y-117470000D02*
X96740000Y-114530000D01*
X97640000Y-114530000D02*
X92200000Y-114530000D01*
%TO.C,J8*%
X95770000Y-146670000D02*
X118690000Y-146670000D01*
X94500000Y-149330000D02*
X93170000Y-149330000D01*
X95770000Y-149330000D02*
X118690000Y-149330000D01*
X93170000Y-149330000D02*
X93170000Y-148000000D01*
X118690000Y-149330000D02*
X118690000Y-146670000D01*
X95770000Y-149330000D02*
X95770000Y-146670000D01*
%TO.C,L2*%
X138620000Y-100000000D02*
G75*
G03*
X138620000Y-100000000I-6120000J0D01*
G01*
%TO.C,D8*%
X107200000Y-114530000D02*
X107200000Y-117470000D01*
X107200000Y-117470000D02*
X112640000Y-117470000D01*
X111860000Y-117470000D02*
X111860000Y-114530000D01*
X111740000Y-117470000D02*
X111740000Y-114530000D01*
X111620000Y-117470000D02*
X111620000Y-114530000D01*
X113660000Y-116000000D02*
X112640000Y-116000000D01*
X112640000Y-114530000D02*
X107200000Y-114530000D01*
X106180000Y-116000000D02*
X107200000Y-116000000D01*
X112640000Y-117470000D02*
X112640000Y-114530000D01*
%TO.C,J5*%
X148670000Y-126330000D02*
X148670000Y-125000000D01*
X197050000Y-126330000D02*
X197050000Y-123670000D01*
X151270000Y-123670000D02*
X197050000Y-123670000D01*
X150000000Y-126330000D02*
X148670000Y-126330000D01*
X151270000Y-126330000D02*
X151270000Y-123670000D01*
X151270000Y-126330000D02*
X197050000Y-126330000D01*
D10*
%TO.C,J1*%
X60600000Y-86500000D02*
X64200000Y-86500000D01*
X76300000Y-77200000D02*
X78700000Y-77200000D01*
X78700000Y-77200000D02*
X78700000Y-89000000D01*
D12*
X69500000Y-90050000D02*
X70500000Y-90050000D01*
D10*
X64200000Y-77200000D02*
X71950000Y-77200000D01*
X60600000Y-80300000D02*
X60600000Y-86500000D01*
X64200000Y-89000000D02*
X64200000Y-77200000D01*
X76000000Y-89000000D02*
X72250000Y-89000000D01*
X67750000Y-89000000D02*
X64200000Y-89000000D01*
X78700000Y-89000000D02*
X78600000Y-89000000D01*
D12*
X70000000Y-89500000D02*
X69500000Y-90050000D01*
D10*
X64200000Y-80300000D02*
X60600000Y-80300000D01*
D12*
X70500000Y-90050000D02*
X70000000Y-89500000D01*
%TO.C,LED1*%
X185180000Y-84640000D02*
X188270000Y-84640000D01*
X188269830Y-84640000D02*
G75*
G03*
X186724538Y-79090000I-1544830J2560000D01*
G01*
X186725462Y-79090000D02*
G75*
G03*
X185180170Y-84640000I-462J-2990000D01*
G01*
X189225000Y-82080000D02*
G75*
G03*
X189225000Y-82080000I-2500000J0D01*
G01*
%TO.C,C1*%
X154120000Y-75500000D02*
G75*
G03*
X154120000Y-75500000I-5120000J0D01*
G01*
D10*
%TO.C,J2*%
X78700000Y-116000000D02*
X78600000Y-116000000D01*
X60600000Y-113500000D02*
X64200000Y-113500000D01*
X64200000Y-107300000D02*
X60600000Y-107300000D01*
D12*
X70500000Y-117050000D02*
X70000000Y-116500000D01*
D10*
X67750000Y-116000000D02*
X64200000Y-116000000D01*
D12*
X70000000Y-116500000D02*
X69500000Y-117050000D01*
D10*
X60600000Y-107300000D02*
X60600000Y-113500000D01*
X64200000Y-104200000D02*
X71950000Y-104200000D01*
X64200000Y-116000000D02*
X64200000Y-104200000D01*
D12*
X69500000Y-117050000D02*
X70500000Y-117050000D01*
D10*
X76000000Y-116000000D02*
X72250000Y-116000000D01*
X78700000Y-104200000D02*
X78700000Y-116000000D01*
X76300000Y-104200000D02*
X78700000Y-104200000D01*
D12*
%TO.C,C2*%
X155120000Y-102500000D02*
G75*
G03*
X155120000Y-102500000I-5120000J0D01*
G01*
%TO.C,J3*%
X190200000Y-105400000D02*
X198700000Y-105400000D01*
X198700000Y-114600000D02*
X184000000Y-114600000D01*
X183700000Y-113200000D02*
X183700000Y-114900000D01*
X184000000Y-107500000D02*
X184000000Y-105400000D01*
X184000000Y-114600000D02*
X184000000Y-112500000D01*
X198700000Y-105400000D02*
X198700000Y-114600000D01*
X184000000Y-105400000D02*
X185800000Y-105400000D01*
X183700000Y-114900000D02*
X185300000Y-114900000D01*
%TO.C,D5*%
X98660000Y-104000000D02*
X97640000Y-104000000D01*
X97640000Y-102530000D02*
X92200000Y-102530000D01*
X92200000Y-102530000D02*
X92200000Y-105470000D01*
X96620000Y-105470000D02*
X96620000Y-102530000D01*
X96860000Y-105470000D02*
X96860000Y-102530000D01*
X92200000Y-105470000D02*
X97640000Y-105470000D01*
X91180000Y-104000000D02*
X92200000Y-104000000D01*
X97640000Y-105470000D02*
X97640000Y-102530000D01*
X96740000Y-105470000D02*
X96740000Y-102530000D01*
%TO.C,J4*%
X151270000Y-148830000D02*
X151270000Y-146170000D01*
X148670000Y-148830000D02*
X148670000Y-147500000D01*
X151270000Y-148830000D02*
X197050000Y-148830000D01*
X150000000Y-148830000D02*
X148670000Y-148830000D01*
X197050000Y-148830000D02*
X197050000Y-146170000D01*
X151270000Y-146170000D02*
X197050000Y-146170000D01*
%TO.C,R1*%
X161630000Y-81350000D02*
X164370000Y-81350000D01*
X163000000Y-74040000D02*
X163000000Y-74810000D01*
X163000000Y-82120000D02*
X163000000Y-81350000D01*
X164370000Y-74810000D02*
X161630000Y-74810000D01*
X164370000Y-81350000D02*
X164370000Y-74810000D01*
X161630000Y-74810000D02*
X161630000Y-81350000D01*
%TO.C,R3*%
X178375000Y-86265000D02*
X178375000Y-85495000D01*
X178375000Y-78185000D02*
X178375000Y-78955000D01*
X179745000Y-85495000D02*
X179745000Y-78955000D01*
X177005000Y-78955000D02*
X177005000Y-85495000D01*
X177005000Y-85495000D02*
X179745000Y-85495000D01*
X179745000Y-78955000D02*
X177005000Y-78955000D01*
%TO.C,D1*%
X92200000Y-76530000D02*
X92200000Y-79470000D01*
X96620000Y-79470000D02*
X96620000Y-76530000D01*
X98660000Y-78000000D02*
X97640000Y-78000000D01*
X96740000Y-79470000D02*
X96740000Y-76530000D01*
X96860000Y-79470000D02*
X96860000Y-76530000D01*
X97640000Y-79470000D02*
X97640000Y-76530000D01*
X91180000Y-78000000D02*
X92200000Y-78000000D01*
X92200000Y-79470000D02*
X97640000Y-79470000D01*
X97640000Y-76530000D02*
X92200000Y-76530000D01*
%TO.C,R2*%
X161630000Y-101810000D02*
X161630000Y-108350000D01*
X164370000Y-101810000D02*
X161630000Y-101810000D01*
X164370000Y-108350000D02*
X164370000Y-101810000D01*
X163000000Y-101040000D02*
X163000000Y-101810000D01*
X163000000Y-109120000D02*
X163000000Y-108350000D01*
X161630000Y-108350000D02*
X164370000Y-108350000D01*
%TO.C,D4*%
X107200000Y-89470000D02*
X112640000Y-89470000D01*
X113660000Y-88000000D02*
X112640000Y-88000000D01*
X112640000Y-86530000D02*
X107200000Y-86530000D01*
X112640000Y-89470000D02*
X112640000Y-86530000D01*
X106180000Y-88000000D02*
X107200000Y-88000000D01*
X111620000Y-89470000D02*
X111620000Y-86530000D01*
X111740000Y-89470000D02*
X111740000Y-86530000D01*
X111860000Y-89470000D02*
X111860000Y-86530000D01*
X107200000Y-86530000D02*
X107200000Y-89470000D01*
%TO.C,D2*%
X107200000Y-76530000D02*
X107200000Y-79470000D01*
X112640000Y-76530000D02*
X107200000Y-76530000D01*
X113660000Y-78000000D02*
X112640000Y-78000000D01*
X111620000Y-79470000D02*
X111620000Y-76530000D01*
X111860000Y-79470000D02*
X111860000Y-76530000D01*
X112640000Y-79470000D02*
X112640000Y-76530000D01*
X107200000Y-79470000D02*
X112640000Y-79470000D01*
X111740000Y-79470000D02*
X111740000Y-76530000D01*
X106180000Y-78000000D02*
X107200000Y-78000000D01*
%TO.C,D3*%
X98660000Y-88000000D02*
X97640000Y-88000000D01*
X97640000Y-86530000D02*
X92200000Y-86530000D01*
X96740000Y-89470000D02*
X96740000Y-86530000D01*
X92200000Y-89470000D02*
X97640000Y-89470000D01*
X96620000Y-89470000D02*
X96620000Y-86530000D01*
X91180000Y-88000000D02*
X92200000Y-88000000D01*
X92200000Y-86530000D02*
X92200000Y-89470000D01*
X96860000Y-89470000D02*
X96860000Y-86530000D01*
X97640000Y-89470000D02*
X97640000Y-86530000D01*
%TO.C,L1*%
X138620000Y-73000000D02*
G75*
G03*
X138620000Y-73000000I-6120000J0D01*
G01*
%TO.C,D6*%
X107200000Y-105470000D02*
X112640000Y-105470000D01*
X112640000Y-105470000D02*
X112640000Y-102530000D01*
X111740000Y-105470000D02*
X111740000Y-102530000D01*
X106180000Y-104000000D02*
X107200000Y-104000000D01*
X112640000Y-102530000D02*
X107200000Y-102530000D01*
X107200000Y-102530000D02*
X107200000Y-105470000D01*
X113660000Y-104000000D02*
X112640000Y-104000000D01*
X111620000Y-105470000D02*
X111620000Y-102530000D01*
X111860000Y-105470000D02*
X111860000Y-102530000D01*
%TD*%
M02*
