%TF.GenerationSoftware,KiCad,Pcbnew,(6.0.8)*%
%TF.CreationDate,2023-03-14T15:32:15-04:00*%
%TF.ProjectId,MainPCB,4d61696e-5043-4422-9e6b-696361645f70,rev?*%
%TF.SameCoordinates,Original*%
%TF.FileFunction,Soldermask,Top*%
%TF.FilePolarity,Negative*%
%FSLAX46Y46*%
G04 Gerber Fmt 4.6, Leading zero omitted, Abs format (unit mm)*
G04 Created by KiCad (PCBNEW (6.0.8)) date 2023-03-14 15:32:15*
%MOMM*%
%LPD*%
G01*
G04 APERTURE LIST*
%ADD10R,2.200000X2.200000*%
%ADD11O,2.200000X2.200000*%
%ADD12R,1.700000X1.700000*%
%ADD13O,1.700000X1.700000*%
%ADD14C,2.400000*%
%ADD15O,4.000000X2.200000*%
%ADD16O,2.200000X4.000000*%
%ADD17R,4.000000X2.200000*%
%ADD18R,1.800000X1.800000*%
%ADD19C,1.800000*%
%ADD20C,1.600000*%
%ADD21R,1.600000X1.600000*%
%ADD22R,1.800000X4.400000*%
%ADD23O,1.800000X4.000000*%
%ADD24O,4.000000X1.800000*%
%ADD25O,1.600000X1.600000*%
%ADD26C,2.100000*%
G04 APERTURE END LIST*
D10*
%TO.C,D7*%
X100000000Y-116000000D03*
D11*
X89840000Y-116000000D03*
%TD*%
D12*
%TO.C,J8*%
X94500000Y-148000000D03*
D13*
X97040000Y-148000000D03*
X99580000Y-148000000D03*
X102120000Y-148000000D03*
X104660000Y-148000000D03*
X107200000Y-148000000D03*
X109740000Y-148000000D03*
X112280000Y-148000000D03*
X114820000Y-148000000D03*
X117360000Y-148000000D03*
%TD*%
D14*
%TO.C,L2*%
X130000000Y-100000000D03*
X135000000Y-100000000D03*
%TD*%
D10*
%TO.C,D8*%
X115000000Y-116000000D03*
D11*
X104840000Y-116000000D03*
%TD*%
D12*
%TO.C,J5*%
X150000000Y-125000000D03*
D13*
X152540000Y-125000000D03*
X155080000Y-125000000D03*
X157620000Y-125000000D03*
X160160000Y-125000000D03*
X162700000Y-125000000D03*
X165240000Y-125000000D03*
X167780000Y-125000000D03*
X170320000Y-125000000D03*
X172860000Y-125000000D03*
X175400000Y-125000000D03*
X177940000Y-125000000D03*
X180480000Y-125000000D03*
X183020000Y-125000000D03*
X185560000Y-125000000D03*
X188100000Y-125000000D03*
X190640000Y-125000000D03*
X193180000Y-125000000D03*
X195720000Y-125000000D03*
%TD*%
D15*
%TO.C,J1*%
X74100000Y-78200000D03*
X72900000Y-80900000D03*
D16*
X66100000Y-83400000D03*
D17*
X70000000Y-88000000D03*
D16*
X77300000Y-87500000D03*
%TD*%
D18*
%TO.C,LED1*%
X186725000Y-83350000D03*
D19*
X186725000Y-80810000D03*
%TD*%
D20*
%TO.C,C1*%
X149000000Y-73000000D03*
D21*
X149000000Y-78000000D03*
%TD*%
D15*
%TO.C,J2*%
X74100000Y-105200000D03*
X72900000Y-107900000D03*
D16*
X66100000Y-110400000D03*
D17*
X70000000Y-115000000D03*
D16*
X77300000Y-114500000D03*
%TD*%
D20*
%TO.C,C2*%
X150000000Y-100000000D03*
D21*
X150000000Y-105000000D03*
%TD*%
D22*
%TO.C,J3*%
X185000000Y-110000000D03*
D23*
X190800000Y-110000000D03*
D24*
X188000000Y-105200000D03*
%TD*%
D10*
%TO.C,D5*%
X100000000Y-104000000D03*
D11*
X89840000Y-104000000D03*
%TD*%
D12*
%TO.C,J4*%
X150000000Y-147500000D03*
D13*
X152540000Y-147500000D03*
X155080000Y-147500000D03*
X157620000Y-147500000D03*
X160160000Y-147500000D03*
X162700000Y-147500000D03*
X165240000Y-147500000D03*
X167780000Y-147500000D03*
X170320000Y-147500000D03*
X172860000Y-147500000D03*
X175400000Y-147500000D03*
X177940000Y-147500000D03*
X180480000Y-147500000D03*
X183020000Y-147500000D03*
X185560000Y-147500000D03*
X188100000Y-147500000D03*
X190640000Y-147500000D03*
X193180000Y-147500000D03*
X195720000Y-147500000D03*
%TD*%
D20*
%TO.C,R1*%
X163000000Y-73000000D03*
D25*
X163000000Y-83160000D03*
%TD*%
D20*
%TO.C,R3*%
X178375000Y-87305000D03*
D25*
X178375000Y-77145000D03*
%TD*%
D26*
%TO.C,REF\u002A\u002A*%
X190000000Y-156000000D03*
%TD*%
D10*
%TO.C,D1*%
X100000000Y-78000000D03*
D11*
X89840000Y-78000000D03*
%TD*%
D20*
%TO.C,R2*%
X163000000Y-100000000D03*
D25*
X163000000Y-110160000D03*
%TD*%
D26*
%TO.C,REF\u002A\u002A*%
X85000000Y-68000000D03*
%TD*%
D10*
%TO.C,D4*%
X115000000Y-88000000D03*
D11*
X104840000Y-88000000D03*
%TD*%
D26*
%TO.C,REF\u002A\u002A*%
X190000000Y-68000000D03*
%TD*%
%TO.C,REF\u002A\u002A*%
X85000000Y-156000000D03*
%TD*%
D10*
%TO.C,D2*%
X115000000Y-78000000D03*
D11*
X104840000Y-78000000D03*
%TD*%
D10*
%TO.C,D3*%
X100000000Y-88000000D03*
D11*
X89840000Y-88000000D03*
%TD*%
D14*
%TO.C,L1*%
X130000000Y-73000000D03*
X135000000Y-73000000D03*
%TD*%
D10*
%TO.C,D6*%
X115000000Y-104000000D03*
D11*
X104840000Y-104000000D03*
%TD*%
M02*
